<svg enable-background="new 0 0 60 60" height="512" viewBox="0 0 60 60" width="512" xmlns="http://www.w3.org/2000/svg"><path d="m45 59 9-8h-5v-16h-8v16h-5z" fill="#dd352e"/><path d="m15 6-9 8h5v16h8v-16h5z" fill="#23a24d"/><circle cx="45" cy="15" fill="#57abc1" r="14"/><path d="m50 17-5-3-5 3 5 6z" fill="#006777"/><path d="m50 17-5-2-5 2 5-10z" fill="#007e9b"/><path d="m3 40h24v2h-24z" fill="#dd352e"/><path d="m25.238 35.922c-.689-.521-1.609-.922-2.809-.922-2.78 0-4.177 1.315-4.773 2.119.78.272-.656 1.007-.656 1.881 0 1.007-1.032 1.86-2 2h2.286 9.714v-1.423c0-1.405-.608-2.782-1.762-3.655z" fill="#dd352e"/><path d="m15 39c0-.874-3.436-1.609-2.656-1.881-.595-.804-1.993-2.119-4.772-2.119-1.2 0-2.12.401-2.809.922-1.155.873-1.763 2.25-1.763 3.655v1.423h12l-2.286-.029c-.968-.14 2.286-.964 2.286-1.971z" fill="#dd352e"/><path d="m3 44h24v15h-24z" fill="#366db6"/><path d="m1 41h28v4h-28z" fill="#1f436d"/><path d="m17 41h-4c-1.105 0-2-.895-2-2 0-1.105.895-2 2-2h4c1.105 0 2 .895 2 2 0 1.105-.895 2-2 2z" fill="#b02721"/><path d="m12 45h6v14h-6z" fill="#ebba16"/><g fill="#4d007e"><path d="m27 60h-24c-.552 0-1-.447-1-1v-14c0-.553.448-1 1-1h24c.552 0 1 .447 1 1v14c0 .553-.448 1-1 1zm-23-2h22v-12h-22z"/><path d="m29 46h-28c-.552 0-1-.447-1-1v-4c0-.553.448-1 1-1h28c.552 0 1 .447 1 1v4c0 .553-.448 1-1 1zm-27-2h26v-2h-26z"/><path d="m17 42h-4c-1.654 0-3-1.346-3-3s1.346-3 3-3h4c1.654 0 3 1.346 3 3s-1.346 3-3 3zm-4-4c-.552 0-1 .448-1 1s.448 1 1 1h4c.552 0 1-.448 1-1s-.448-1-1-1z"/><path d="m27 42h-9.714c-.552 0-1-.447-1-1 0-.497.365-.948.857-1.02.496-.071.857-.483.857-.98 0-.42-.271-.796-.674-.937-.3-.105-.533-.347-.626-.65s-.037-.634.152-.89c.699-.942 2.352-2.523 5.577-2.523 1.278 0 2.426.378 3.412 1.124 1.352 1.022 2.159 2.688 2.159 4.453v1.423c0 .553-.448 1-1 1zm-9.714-1.029h.01zm2.539-.971h6.175v-.423c0-1.143-.51-2.211-1.366-2.857 0 0 0 0 0-.001-.631-.477-1.373-.719-2.205-.719-1.548 0-2.574.467-3.229.969.502.541.8 1.261.8 2.031 0 .349-.062.686-.175 1z"/><path d="m12.714 42h-9.714c-.552 0-1-.447-1-1v-1.423c0-1.766.807-3.43 2.159-4.453.986-.746 2.134-1.124 3.413-1.124 3.225 0 4.878 1.581 5.576 2.523.189.256.246.586.152.89s-.326.545-.626.65c-.403.141-.674.517-.674.937 0 .497.361.909.857.98.492.071.857.493.857.99 0 .553-.447 1.03-1 1.03zm-8.714-2h6.175c-.113-.314-.175-.651-.175-1 0-.77.298-1.49.801-2.031-.655-.502-1.681-.969-3.229-.969-.833 0-1.575.242-2.206.719-.856.647-1.366 1.716-1.366 2.858z"/><path d="m18 60h-6c-.552 0-1-.447-1-1v-14c0-.553.448-1 1-1h6c.552 0 1 .447 1 1v14c0 .553-.448 1-1 1zm-5-2h4v-12h-4z"/><path d="m45 30c-8.271 0-15-6.729-15-15s6.729-15 15-15 15 6.729 15 15-6.729 15-15 15zm0-28c-7.168 0-13 5.832-13 13s5.832 13 13 13 13-5.832 13-13-5.832-13-13-13z"/><path d="m50 18c-.125 0-.251-.023-.372-.071l-4.628-1.852-4.628 1.852c-.386.153-.826.054-1.107-.252-.281-.305-.344-.753-.159-1.124l5-10c.339-.678 1.45-.678 1.789 0l5 10c.186.371.123.819-.159 1.124-.194.21-.462.323-.736.323zm-5-4c.126 0 .252.023.372.071l2.558 1.023-2.93-5.858-2.929 5.858 2.558-1.023c.119-.048.245-.071.371-.071z"/><path d="m45 24c-.297 0-.578-.132-.768-.359l-5-6c-.205-.246-.28-.575-.201-.886.078-.311.301-.564.598-.684l5-2c.239-.096.504-.096.743 0l5 2c.297.119.52.373.598.684.079.311.004.64-.201.886l-5 6c-.191.227-.472.359-.769.359zm-3.351-6.583 3.351 4.021 3.351-4.021-3.351-1.34z"/><path d="m45 60c-.237 0-.475-.084-.665-.253l-9-8c-.31-.275-.417-.715-.27-1.103s.52-.644.935-.644h4v-15c0-.553.448-1 1-1h8c.552 0 1 .447 1 1v15h4c.415 0 .787.257.935.645s.04.827-.27 1.103l-9 8c-.19.168-.428.252-.665.252zm-6.37-8 6.37 5.662 6.37-5.662h-2.37c-.552 0-1-.447-1-1v-15h-6v15c0 .553-.448 1-1 1z"/><path d="m19 31h-8c-.552 0-1-.447-1-1v-15h-4c-.415 0-.787-.257-.935-.645-.147-.388-.04-.827.271-1.103l9-8c.379-.338.95-.338 1.329 0l9 8c.31.275.418.715.271 1.103-.149.388-.521.645-.936.645h-4v15c0 .553-.448 1-1 1zm-7-2h6v-15c0-.553.448-1 1-1h2.37l-6.37-5.662-6.37 5.662h2.37c.552 0 1 .447 1 1z"/></g></svg>