<svg id="Layer_1" enable-background="new 0 0 60 60" height="512" viewBox="0 0 60 60" width="512" xmlns="http://www.w3.org/2000/svg"><path d="m27.03 60h-24c-.552 0-1-.447-1-1v-14c0-.553.448-1 1-1h24c.552 0 1 .447 1 1v14c0 .553-.448 1-1 1zm-23-2h22v-12h-22z"/><path d="m29.03 46h-28c-.552 0-1-.447-1-1v-4c0-.553.448-1 1-1h28c.552 0 1 .447 1 1v4c0 .553-.448 1-1 1zm-27-2h26v-2h-26z"/><path d="m17.03 42h-4c-1.654 0-3-1.346-3-3s1.346-3 3-3h4c1.654 0 3 1.346 3 3s-1.346 3-3 3zm-4-4c-.551 0-1 .448-1 1s.449 1 1 1h4c.552 0 1-.448 1-1s-.448-1-1-1z"/><path d="m27.03 42h-9.714c-.552 0-1-.447-1-1 0-.497.365-.948.857-1.02.497-.071.857-.483.857-.98 0-.42-.271-.796-.674-.937-.3-.105-.533-.347-.626-.65-.094-.304-.037-.634.152-.89.698-.942 2.351-2.523 5.576-2.523 1.278 0 2.426.378 3.412 1.124 1.352 1.022 2.159 2.688 2.159 4.453v1.423c.001.553-.447 1-.999 1zm-9.715-1.029h.01zm2.54-.971h6.175v-.423c0-1.143-.51-2.211-1.366-2.857 0 0 0 0 0-.001-.631-.477-1.373-.719-2.206-.719-1.548 0-2.574.467-3.229.969.503.541.801 1.262.801 2.031 0 .349-.062.686-.175 1z"/><path d="m12.744 42h-9.714c-.552 0-1-.447-1-1v-1.423c0-1.766.807-3.43 2.159-4.453.986-.746 2.134-1.124 3.414-1.124 3.225 0 4.878 1.581 5.576 2.523.189.256.246.586.152.89s-.326.545-.626.65c-.403.141-.674.517-.674.937 0 .497.361.909.857.98.492.071.857.493.857.99-.001.553-.449 1.03-1.001 1.03zm-8.714-2h6.175c-.114-.314-.175-.651-.175-1 0-.77.298-1.49.801-2.031-.655-.502-1.682-.969-3.229-.969-.833 0-1.575.242-2.206.719-.855.647-1.366 1.716-1.366 2.858z"/><path d="m18.03 60h-6c-.552 0-1-.447-1-1v-14c0-.553.448-1 1-1h6c.552 0 1 .447 1 1v14c0 .553-.448 1-1 1zm-5-2h4v-12h-4z"/><path d="m45.03 30c-8.271 0-15-6.729-15-15s6.729-15 15-15 15 6.729 15 15-6.729 15-15 15zm0-28c-7.168 0-13 5.832-13 13s5.832 13 13 13 13-5.832 13-13-5.832-13-13-13z"/><path d="m50.03 18c-.125 0-.251-.023-.372-.071l-4.628-1.852-4.628 1.852c-.386.153-.826.054-1.107-.252-.281-.305-.344-.753-.159-1.124l5-10c.339-.678 1.45-.678 1.789 0l5 10c.186.371.123.819-.159 1.124-.194.21-.462.323-.736.323zm-5-4c.126 0 .252.023.372.071l2.558 1.023-2.929-5.858-2.929 5.858 2.558-1.023c.118-.048.244-.071.37-.071z"/><path d="m45.03 24c-.297 0-.578-.132-.768-.359l-5-6c-.205-.246-.28-.575-.201-.886.078-.311.301-.564.598-.684l5-2c.239-.096.504-.096.743 0l5 2c.297.119.52.373.598.684.079.311.004.64-.201.886l-5 6c-.191.227-.472.359-.769.359zm-3.351-6.583 3.351 4.021 3.351-4.021-3.351-1.34z"/><path d="m45.03 60c-.237 0-.475-.084-.665-.253l-9-8c-.31-.275-.417-.715-.27-1.103s.52-.645.935-.645h4v-15c0-.553.448-1 1-1h8c.552 0 1 .447 1 1v15h4c.415 0 .787.257.935.645s.04.827-.27 1.103l-9 8c-.19.169-.428.253-.665.253zm-6.37-8 6.37 5.662 6.37-5.662h-2.37c-.552 0-1-.447-1-1v-15h-6v15c0 .553-.448 1-1 1z"/><path d="m19.03 31h-8c-.552 0-1-.447-1-1v-15h-4c-.415 0-.787-.257-.935-.645s-.04-.827.271-1.103l9-8c.379-.338.95-.338 1.329 0l9 8c.31.275.418.715.271 1.103-.148.388-.52.645-.935.645h-4v15c-.001.553-.449 1-1.001 1zm-7-2h6v-15c0-.553.448-1 1-1h2.37l-6.37-5.662-6.37 5.662h2.37c.552 0 1 .447 1 1z"/></svg>