<?xml version="1.0" encoding="iso-8859-1"?>
<!-- Generator: Adobe Illustrator 19.0.0, SVG Export Plug-In . SVG Version: 6.00 Build 0)  -->
<svg version="1.1" id="Capa_1" xmlns="http://www.w3.org/2000/svg" xmlns:xlink="http://www.w3.org/1999/xlink" x="0px" y="0px"
	 viewBox="0 0 496 496" style="enable-background:new 0 0 496 496;" xml:space="preserve">
<g>
	<g>
		<g>
			<path d="M304,385.472V376c0-30.88-25.128-56-56-56s-56,25.12-56,56v9.472c-9.288,3.312-16,12.112-16,22.528v64
				c0,13.232,10.768,24,24,24h96c13.232,0,24-10.768,24-24v-64C320,397.584,313.288,388.784,304,385.472z M208,376
				c0-22.056,17.944-40,40-40c22.056,0,40,17.944,40,40v8h-80V376z M304,472c0,4.408-3.584,8-8,8h-96c-4.416,0-8-3.592-8-8v-64
				c0-4.408,3.584-8,8-8h96c4.416,0,8,3.592,8,8V472z"/>
			<path d="M248,408c-13.232,0-24,10.768-24,24c0,10.416,6.712,19.216,16,22.528V472h16v-17.472c9.288-3.312,16-12.112,16-22.528
				C272,418.768,261.232,408,248,408z M248,440c-4.416,0-8-3.592-8-8c0-4.408,3.584-8,8-8s8,3.592,8,8
				C256,436.408,252.416,440,248,440z"/>
			<path d="M376,0H204.816L120,80.344V304h256V0z M216,96V48h112v112H168V96H216z M200,26.6V80h-56.368L200,26.6z M360,288H136V96
				h16v80h192V32H216V16h144V288z"/>
			<path d="M464,336c-17.648,0-32,14.352-32,32c0,14.864,10.232,27.288,24,30.864V432h-16v16h16v16h-16v16h16v16h16v-97.136
				c13.768-3.576,24-16,24-30.864C496,350.352,481.648,336,464,336z M464,384c-8.824,0-16-7.176-16-16c0-8.824,7.176-16,16-16
				c8.824,0,16,7.176,16,16C480,376.824,472.824,384,464,384z"/>
			<path d="M32,336c-17.648,0-32,14.352-32,32c0,14.864,10.232,27.288,24,30.864V432H8v16h16v16H8v16h16v16h16v-97.136
				c13.768-3.576,24-16,24-30.864C64,350.352,49.648,336,32,336z M32,384c-8.824,0-16-7.176-16-16c0-8.824,7.176-16,16-16
				s16,7.176,16,16C48,376.824,40.824,384,32,384z"/>
			<path d="M496,232c0-44.112-35.888-80-80-80v16c35.288,0,64,28.712,64,64c0,35.288-28.712,64-64,64v16
				C460.112,312,496,276.112,496,232z"/>
			<path d="M464,232c0-26.472-21.528-48-48-48v16c17.648,0,32,14.352,32,32s-14.352,32-32,32v16C442.472,280,464,258.472,464,232z"
				/>
			<path d="M0,232c0,44.112,35.888,80,80,80v-16c-35.288,0-64-28.712-64-64c0-35.288,28.712-64,64-64v-16
				C35.888,152,0,187.888,0,232z"/>
			<path d="M32,232c0,26.472,21.528,48,48,48v-16c-17.648,0-32-14.352-32-32s14.352-32,32-32v-16C53.528,184,32,205.528,32,232z"/>
			<rect x="184" y="192" width="160" height="16"/>
			<rect x="152" y="192" width="16" height="16"/>
			<rect x="152" y="224" width="192" height="16"/>
			<rect x="328" y="256" width="16" height="16"/>
			<rect x="152" y="256" width="160" height="16"/>
			<rect x="336" y="432" width="16" height="16"/>
			<rect x="368" y="432" width="16" height="16"/>
			<rect x="144" y="432" width="16" height="16"/>
			<rect x="112" y="432" width="16" height="16"/>
		</g>
	</g>
</g>
<g>
</g>
<g>
</g>
<g>
</g>
<g>
</g>
<g>
</g>
<g>
</g>
<g>
</g>
<g>
</g>
<g>
</g>
<g>
</g>
<g>
</g>
<g>
</g>
<g>
</g>
<g>
</g>
<g>
</g>
</svg>
